<svg width="143" height="56" viewBox="0 0 143 56" fill="none" xmlns="http://www.w3.org/2000/svg">
<path d="M13.974 2.21L13.532 6.12C12.036 5.474 10.37 5.1 8.704 5.1C7.072 5.1 4.964 5.814 4.964 8.398C4.964 12.512 15.368 10.778 15.368 18.734C15.368 23.936 11.254 25.908 6.46 25.908C3.876 25.908 2.72 25.568 0.374 24.99L0.816 20.706C2.448 21.59 4.318 22.168 6.188 22.168C7.99 22.168 10.404 21.25 10.404 19.108C10.404 14.586 0 16.456 0 8.602C0 3.298 4.114 1.36 8.296 1.36C10.336 1.36 12.24 1.632 13.974 2.21Z" fill="#001C46"/>
<path d="M21.6466 15.028H29.3986C29.2626 12.818 28.2426 10.914 25.6926 10.914C23.1426 10.914 21.8506 12.682 21.6466 15.028ZM32.4586 20.808V24.514C30.7926 25.432 28.8886 25.908 26.4406 25.908C20.6606 25.908 17.2946 22.576 17.2946 16.83C17.2946 11.764 19.9806 7.582 25.4206 7.582C31.9146 7.582 33.7506 12.036 33.7506 18.156H21.6466C21.8506 20.978 23.8226 22.576 26.6446 22.576C28.8546 22.576 30.7586 21.76 32.4586 20.808Z" fill="#001C46"/>
<path d="M37.3772 12.818L37.2412 8.908C39.0092 8.092 41.3892 7.582 43.3272 7.582C48.6652 7.582 50.8752 9.792 50.8752 14.96V17.204C50.8752 18.972 50.9092 20.298 50.9432 21.59C50.9772 22.916 51.0452 24.14 51.1472 25.5H47.1352C46.9652 24.582 46.9652 23.426 46.9312 22.882H46.8632C45.8092 24.82 43.5312 25.908 41.4572 25.908C38.3632 25.908 35.3372 24.038 35.3372 20.706C35.3372 18.088 36.5952 16.558 38.3292 15.708C40.0632 14.858 42.3072 14.688 44.2112 14.688H46.7272C46.7272 11.866 45.4692 10.914 42.7832 10.914C40.8452 10.914 38.9072 11.662 37.3772 12.818ZM39.6892 20.434C39.6892 21.93 40.9472 22.576 42.5792 22.576C43.9732 22.576 45.0612 21.964 45.7752 21.012C46.5232 20.026 46.7272 18.768 46.7272 17.408H44.7552C42.7152 17.408 39.6892 17.748 39.6892 20.434Z" fill="#001C46"/>
<path d="M65.2117 8.228L64.9057 11.662C63.5117 11.186 62.4917 10.914 60.8257 10.914C59.6017 10.914 58.1397 11.356 58.1397 12.852C58.1397 15.64 66.0617 13.872 66.0617 20.196C66.0617 24.276 62.4237 25.908 58.7177 25.908C56.9837 25.908 55.2157 25.602 53.5497 25.16L53.8217 21.42C55.2497 22.134 56.7457 22.576 58.3097 22.576C59.4657 22.576 61.3017 22.134 61.3017 20.434C61.3017 17 53.3797 19.346 53.3797 13.022C53.3797 9.248 56.6777 7.582 60.2477 7.582C62.3897 7.582 63.7837 7.922 65.2117 8.228Z" fill="#001C46"/>
<path d="M67.6372 16.864C67.6372 11.084 71.6152 7.582 76.7832 7.582C81.9852 7.582 85.9632 11.084 85.9632 16.864C85.9632 21.896 82.5972 25.908 76.7832 25.908C71.0032 25.908 67.6372 21.896 67.6372 16.864ZM72.3972 16.32C72.3972 19.21 73.3152 22.372 76.7832 22.372C80.2852 22.372 81.2032 19.244 81.2032 16.32C81.2032 13.634 79.7752 11.118 76.7832 11.118C73.8252 11.118 72.3972 13.702 72.3972 16.32Z" fill="#001C46"/>
<path d="M88.6943 25.5V7.99H93.0123V10.37H93.0803C94.5083 8.364 96.4463 7.582 98.8263 7.582C102.974 7.582 104.776 10.506 104.776 14.45V25.5H100.22V16.15C100.22 14.008 100.186 11.118 97.2623 11.118C93.9643 11.118 93.2503 14.688 93.2503 16.932V25.5H88.6943Z" fill="#001C46"/>
<path d="M111.859 15.028H119.611C119.475 12.818 118.455 10.914 115.905 10.914C113.355 10.914 112.063 12.682 111.859 15.028ZM122.671 20.808V24.514C121.005 25.432 119.101 25.908 116.653 25.908C110.873 25.908 107.507 22.576 107.507 16.83C107.507 11.764 110.193 7.582 115.633 7.582C122.127 7.582 123.963 12.036 123.963 18.156H111.859C112.063 20.978 114.035 22.576 116.857 22.576C119.067 22.576 120.971 21.76 122.671 20.808Z" fill="#001C46"/>
<path d="M130.31 16.694C130.31 19.108 131.16 22.372 134.152 22.372C137.178 22.372 138.164 19.176 138.164 16.694C138.164 14.246 137.008 11.118 134.084 11.118C131.126 11.118 130.31 14.348 130.31 16.694ZM138.334 25.5V23.528H138.266C136.906 25.228 135.036 25.908 132.894 25.908C127.522 25.908 125.55 21.488 125.55 16.694C125.55 11.866 127.522 7.582 132.894 7.582C135.172 7.582 136.77 8.364 138.13 10.03H138.198V0H142.754V25.5H138.334Z" fill="#001C46"/>
<path d="M11.936 33.348L11.488 36.292C9.856 35.652 8.96 35.364 7.296 35.364C5.504 35.364 3.392 36.004 3.392 38.34C3.392 42.628 12.992 41.636 12.992 48.996C12.992 53.764 9.312 55.652 4.832 55.652C3.264 55.652 1.728 55.204 0.256 54.724L0.576 51.748C1.664 52.196 3.584 52.836 5.216 52.836C7.04 52.836 9.6 51.812 9.6 49.188C9.6 44.196 0 45.572 0 38.628C0 34.66 3.136 32.548 7.168 32.548C8.64 32.548 10.4 32.804 11.936 33.348Z" fill="#EC7680"/>
<path d="M28.288 51.588V54.596C27.136 55.012 25.824 55.652 23.136 55.652C17.344 55.652 14.688 52.132 14.688 46.82C14.688 41.988 17.728 38.564 22.336 38.564C27.776 38.564 29.536 42.532 29.536 47.78H17.888C17.888 51.012 20.416 53.22 23.264 53.22C25.248 53.22 27.552 52.196 28.288 51.588ZM17.888 45.54H26.336C26.336 43.044 24.864 40.996 22.272 40.996C19.328 40.996 18.112 43.428 17.888 45.54Z" fill="#EC7680"/>
<path d="M32.2773 55.268V38.948H35.1893V41.54H35.2533C36.1493 39.684 38.3253 38.564 40.5973 38.564C44.8213 38.564 46.7093 41.188 46.7093 45.572V55.268H43.7013V46.82C43.7013 43.012 42.8693 41.156 40.2453 40.996C36.8213 40.996 35.2853 43.748 35.2853 47.716V55.268H32.2773Z" fill="#EC7680"/>
<path d="M50.9437 55.268V38.948H53.9518V55.268H50.9437ZM54.1437 31.908V35.3H50.7518V31.908H54.1437Z" fill="#EC7680"/>
<path d="M57.098 47.108C57.098 42.148 60.426 38.564 65.418 38.564C70.378 38.564 73.706 42.148 73.706 47.108C73.706 51.78 70.314 55.652 65.418 55.652C60.49 55.652 57.098 51.78 57.098 47.108ZM60.298 47.108C60.298 50.02 61.866 53.22 65.418 53.22C68.938 53.22 70.506 50.02 70.506 47.108C70.506 44.004 68.618 40.996 65.418 40.996C62.186 40.996 60.298 44.004 60.298 47.108Z" fill="#EC7680"/>
<path d="M76.4685 55.268V38.948H79.2845V41.476H79.3485C80.1485 39.78 81.8765 38.564 83.6045 38.564C84.5005 38.564 84.9485 38.66 85.5885 38.788V41.476C85.0445 41.252 84.4365 41.188 83.9245 41.188C81.2365 41.188 79.4765 43.748 79.4765 47.844V55.268H76.4685Z" fill="#EC7680"/>
</svg>
