<svg width="33" height="32" viewBox="0 0 33 32" fill="none" xmlns="http://www.w3.org/2000/svg">
<path d="M20.5888 7.87572C21.3388 6.96948 21.8701 5.7351 21.8701 4.48511C21.8701 4.31323 21.8545 4.14136 21.8232 4.00073C20.6045 4.04761 19.1357 4.81323 18.2607 5.84448C17.5732 6.62573 16.9326 7.87572 16.9326 9.12572C16.9326 9.31322 16.9638 9.50072 16.9795 9.56322C17.0576 9.57884 17.1826 9.59447 17.3076 9.59447C18.4013 9.59447 19.7763 8.8601 20.5888 7.87572ZM21.4482 9.86009C19.6201 9.86009 18.1357 10.9695 17.1826 10.9695C16.167 10.9695 14.8388 9.92259 13.2451 9.92259C10.2295 9.92259 7.16699 12.4226 7.16699 17.1257C7.16699 20.0632 8.29199 23.1569 9.69824 25.1569C10.9014 26.8444 11.9482 28.2351 13.4639 28.2351C14.9638 28.2351 15.6201 27.2351 17.4795 27.2351C19.3701 27.2351 19.792 28.2038 21.4482 28.2038C23.0888 28.2038 24.1826 26.7038 25.2138 25.2194C26.3701 23.5163 26.8544 21.8601 26.8701 21.7819C26.7763 21.7507 23.6357 20.4694 23.6357 16.8757C23.6357 13.7663 26.1044 12.3757 26.2451 12.2663C24.6201 9.92259 22.1357 9.86009 21.4482 9.86009Z" fill="#121212"/>
</svg>
