<svg width="24" height="24" viewBox="0 0 24 24" fill="none" xmlns="http://www.w3.org/2000/svg">
<path d="M9.70859 12.0136L15.6554 5.96734C15.7632 5.86184 15.8492 5.73551 15.9083 5.59576C15.9675 5.456 15.9986 5.30564 16 5.15347C16.0013 5.0013 15.9727 4.8504 15.916 4.7096C15.8593 4.5688 15.7755 4.44095 15.6696 4.33353C15.5637 4.2261 15.4378 4.14128 15.2993 4.08402C15.1608 4.02676 15.0124 3.99823 14.8629 4.00009C14.7134 4.00194 14.5657 4.03415 14.4286 4.09484C14.2915 4.15552 14.1677 4.24344 14.0644 4.35346L7.32696 11.2058C7.12336 11.4138 7.00635 11.6936 7.00025 11.9871C6.99415 12.2806 7.09944 12.5652 7.29421 12.7817L14.0598 19.6806C14.2716 19.888 14.5547 20.0026 14.8486 20C15.1424 19.9973 15.4235 19.8776 15.6317 19.6665C15.8398 19.4554 15.9584 19.1696 15.962 18.8706C15.9655 18.5715 15.8539 18.283 15.6509 18.0668L9.70859 12.0136Z" fill="#828282"/>
</svg>
