<svg width="25" height="25" viewBox="0 0 25 25" fill="none" xmlns="http://www.w3.org/2000/svg">
<g id="Icons/Calendar">
<path id="Icon" fill-rule="evenodd" clip-rule="evenodd" d="M6.87145 2.1543C7.27374 2.1543 7.60078 2.47654 7.60851 2.87699L7.60865 2.8915V3.6287H17.9295V2.8915C17.9295 2.48435 18.2595 2.1543 18.6667 2.1543C19.069 2.1543 19.396 2.47654 19.4037 2.87699L19.4039 2.8915V3.6287H20.1411C21.7696 3.6287 23.0899 4.94892 23.0899 6.5775V19.8471C23.0899 21.4757 21.7696 22.7959 20.1411 22.7959H5.39704C3.76847 22.7959 2.44824 21.4757 2.44824 19.8471V6.5775C2.44824 4.94892 3.76847 3.6287 5.39704 3.6287H6.13424V2.8915C6.13424 2.48435 6.4643 2.1543 6.87145 2.1543ZM3.92278 19.847V10.2459C3.93438 9.51461 4.66571 8.7891 5.39704 8.7891H20.1411C20.8783 8.7891 21.6155 9.5263 21.6155 10.2635H21.6156V19.847C21.6156 20.6613 20.9555 21.3214 20.1412 21.3214H5.39718C4.58289 21.3214 3.92278 20.6613 3.92278 19.847ZM15.7179 11.3693C15.7179 11.98 15.2228 12.4751 14.6121 12.4751C14.0013 12.4751 13.5063 11.98 13.5063 11.3693C13.5063 10.7586 14.0013 10.2635 14.6121 10.2635C15.2228 10.2635 15.7179 10.7586 15.7179 11.3693ZM18.2981 12.4751C18.9088 12.4751 19.4039 11.98 19.4039 11.3693C19.4039 10.7586 18.9088 10.2635 18.2981 10.2635C17.6873 10.2635 17.1923 10.7586 17.1923 11.3693C17.1923 11.98 17.6873 12.4751 18.2981 12.4751ZM15.7179 15.0553C15.7179 15.666 15.2228 16.1611 14.6121 16.1611C14.0013 16.1611 13.5063 15.666 13.5063 15.0553C13.5063 14.4446 14.0013 13.9495 14.6121 13.9495C15.2228 13.9495 15.7179 14.4446 15.7179 15.0553ZM18.2981 16.1611C18.9088 16.1611 19.4039 15.666 19.4039 15.0553C19.4039 14.4446 18.9088 13.9495 18.2981 13.9495C17.6873 13.9495 17.1923 14.4446 17.1923 15.0553C17.1923 15.666 17.6873 16.1611 18.2981 16.1611ZM8.34585 15.0553C8.34585 15.666 7.85076 16.1611 7.24005 16.1611C6.62933 16.1611 6.13424 15.666 6.13424 15.0553C6.13424 14.4446 6.62933 13.9495 7.24005 13.9495C7.85076 13.9495 8.34585 14.4446 8.34585 15.0553ZM10.926 16.1611C11.5368 16.1611 12.0318 15.666 12.0318 15.0553C12.0318 14.4446 11.5368 13.9495 10.926 13.9495C10.3153 13.9495 9.82025 14.4446 9.82025 15.0553C9.82025 15.666 10.3153 16.1611 10.926 16.1611ZM8.34585 18.7413C8.34585 19.352 7.85076 19.8471 7.24005 19.8471C6.62933 19.8471 6.13424 19.352 6.13424 18.7413C6.13424 18.1306 6.62933 17.6355 7.24005 17.6355C7.85076 17.6355 8.34585 18.1306 8.34585 18.7413ZM10.926 19.8471C11.5368 19.8471 12.0318 19.352 12.0318 18.7413C12.0318 18.1306 11.5368 17.6355 10.926 17.6355C10.3153 17.6355 9.82025 18.1306 9.82025 18.7413C9.82025 19.352 10.3153 19.8471 10.926 19.8471ZM15.7179 18.7413C15.7179 19.352 15.2228 19.8471 14.6121 19.8471C14.0013 19.8471 13.5063 19.352 13.5063 18.7413C13.5063 18.1306 14.0013 17.6355 14.6121 17.6355C15.2228 17.6355 15.7179 18.1306 15.7179 18.7413Z" fill="#CB5A6F"/>
</g>
</svg>
