<svg xmlns="http://www.w3.org/2000/svg" width="25" height="25" viewBox="0 0 25 25" fill="none">
  <path d="M12.5006 22.8068C6.57942 22.8068 1.7666 17.994 1.7666 12.0728C1.7666 6.15168 6.57942 1.33887 12.5006 1.33887C18.4217 1.33887 23.2346 6.15168 23.2346 12.0728C23.2346 17.994 18.4217 22.8068 12.5006 22.8068ZM12.5006 2.83663C7.40818 2.83663 3.26437 6.98045 3.26437 12.0728C3.26437 17.1652 7.40818 21.3091 12.5006 21.3091C17.593 21.3091 21.7368 17.1652 21.7368 12.0728C21.7368 6.98045 17.593 2.83663 12.5006 2.83663Z" fill="#828282"/>
  <path d="M16.2044 15.9972C16.0746 15.9972 15.9448 15.9672 15.825 15.8873L12.7296 14.0401C11.9608 13.5808 11.3916 12.5723 11.3916 11.6836V7.5897C11.3916 7.18031 11.7311 6.84082 12.1405 6.84082C12.5499 6.84082 12.8894 7.18031 12.8894 7.5897V11.6836C12.8894 12.0431 13.1889 12.5723 13.4985 12.752L16.5938 14.5992C16.9533 14.8089 17.0631 15.2682 16.8534 15.6277C16.7037 15.8673 16.454 15.9972 16.2044 15.9972Z" fill="#828282"/>
</svg>