<svg xmlns="http://www.w3.org/2000/svg" width="133" height="142" viewBox="0 0 133 142" fill="none">
  <path d="M86.8426 111.397L9.29131 137.579C6.18726 138.593 3.24243 135.663 4.24417 132.557C4.24417 132.557 13.3866 104.091 20.6703 81.411C25.4933 66.3944 29.5013 53.9149 29.5013 53.9149" stroke="#131416" stroke-opacity="0.999995" stroke-width="7.60003" stroke-linecap="round"/>
  <path d="M88.3586 110.294C83.1014 115.552 65.8951 106.87 49.9282 90.9023C33.9607 74.9349 25.2785 57.7291 30.5362 52.4714C35.794 47.2136 52.9998 55.8958 68.9667 71.8628C84.9347 87.8302 93.6164 105.037 88.3586 110.294Z" fill="white"/>
  <path d="M29.0038 57.1417C28.9589 55.1526 29.4505 53.5569 30.5361 52.4714C35.7939 47.2136 52.9996 55.8958 68.9666 71.8628C84.9345 87.8302 93.6163 105.037 88.3585 110.294C83.1013 115.552 65.895 106.87 49.928 90.9023C37.2583 78.2326 29.175 64.7832 29.0038 57.1417Z" stroke="#131416" stroke-width="7.60003" stroke-linecap="round"/>
  <path d="M35.7902 77.7385C34.3133 75.7215 33.0016 73.7115 31.8761 71.74C31.4184 70.9708 30.9377 70.0879 30.2514 68.8176L10.0225 131.375L24.5929 126.421L20.8215 125.007L35.7902 77.7385Z" fill="#01CAC3"/>
  <path d="M35.7902 77.7385C34.3133 75.7215 33.0016 73.7115 31.8761 71.74C31.4184 70.9708 30.9377 70.0879 30.2514 68.8176L10.0225 131.375L24.5929 126.421L20.8215 125.007L35.7902 77.7385Z" fill="url(#paint0_linear_1077_16034)" fill-opacity="0.999996"/>
  <g opacity="0.999995">
    <path d="M107.472 93.0193C109.501 93.0193 111.149 94.6673 111.149 96.697C111.149 98.7267 109.501 100.375 107.472 100.375C105.442 100.375 103.794 98.7267 103.794 96.697C103.794 94.6673 105.442 93.0193 107.472 93.0193Z" fill="#00A5FF"/>
  </g>
  <g opacity="0.183415">
    <path d="M128.884 71.5524C130.914 71.5524 132.562 73.2004 132.562 75.2301C132.562 77.2598 130.914 78.9078 128.884 78.9078C126.854 78.9078 125.206 77.2598 125.206 75.2301C125.206 73.2004 126.854 71.5524 128.884 71.5524Z" fill="#01CAC3"/>
  </g>
  <path d="M86.8213 37.2168C88.851 37.2168 90.499 38.8648 90.499 40.8945C90.499 42.9243 88.851 44.5723 86.8213 44.5723C84.7915 44.5723 83.1436 42.9243 83.1436 40.8945C83.1436 38.8648 84.7915 37.2168 86.8213 37.2168Z" fill="#01CAC3"/>
  <path d="M106.783 20.8099C108.782 20.8099 110.405 22.433 110.405 24.432C110.405 26.4311 108.782 28.0542 106.783 28.0542C104.784 28.0542 103.161 26.4311 103.161 24.432C103.161 22.433 104.784 20.8099 106.783 20.8099Z" fill="#00A5FF"/>
  <path d="M93.2568 0.589844C95.2866 0.589844 96.9346 2.23784 96.9346 4.26758C96.9346 6.29732 95.2866 7.94531 93.2568 7.94531C91.2271 7.94531 89.5791 6.29732 89.5791 4.26758C89.5791 2.23784 91.2271 0.589844 93.2568 0.589844Z" fill="#01CAC3"/>
  <g opacity="0.999994">
    <path d="M66.0523 8.19702C67.1364 8.19702 68.0166 9.07726 68.0166 10.1614C68.0166 11.2455 67.1364 12.1258 66.0523 12.1258C64.9681 12.1258 64.0879 11.2455 64.0879 10.1614C64.0879 9.07726 64.9681 8.19702 66.0523 8.19702Z" fill="#00A5FF"/>
  </g>
  <path d="M19.373 14.5295C21.4028 14.5295 23.0508 16.1775 23.0508 18.2072C23.0508 20.237 21.4028 21.8849 19.373 21.8849C17.3433 21.8849 15.6953 20.237 15.6953 18.2072C15.6953 16.1775 17.3433 14.5295 19.373 14.5295Z" fill="#00A5FF"/>
  <path d="M46.305 42.8584C44.0164 37.8577 40.8594 35.2875 40.8594 35.2875" stroke="#01CAC3" stroke-width="12" stroke-linecap="round" stroke-linejoin="round"/>
  <path d="M68.9135 59.5301C71.3198 53.0909 70.9804 45.3062 68.251 38.2271" stroke="#00A5FF" stroke-width="12" stroke-linecap="round" stroke-linejoin="round"/>
  <path d="M70.1465 82.4481C77.2256 77.8152 89.6774 72.7279 106.609 77.5452" stroke="#01CAC3" stroke-width="12" stroke-linecap="round" stroke-linejoin="round"/>
  <path d="M99.2041 93.8754C100.763 94.1533 102.409 94.5946 104.115 95.2519" stroke="#00A5FF" stroke-width="12" stroke-linecap="round" stroke-linejoin="round"/>
  <path d="M117.082 58.2213C119.09 58.2213 120.72 59.8516 120.72 61.8596C120.72 63.8675 119.09 65.4978 117.082 65.4978C115.074 65.4978 113.443 63.8675 113.443 61.8596C113.443 59.8516 115.074 58.2213 117.082 58.2213Z" stroke="#01CAC3" stroke-opacity="0.971714" stroke-width="8" stroke-linecap="round"/>
  <path d="M85.5586 84.4514C87.5883 84.4514 89.2363 86.0994 89.2363 88.1291C89.2363 90.1589 87.5883 91.8069 85.5586 91.8069C83.5288 91.8069 81.8809 90.1589 81.8809 88.1291C81.8809 86.0994 83.5288 84.4514 85.5586 84.4514Z" stroke="#00A5FF" stroke-opacity="0.0466589" stroke-width="6" stroke-linecap="round"/>
  <defs>
    <linearGradient id="paint0_linear_1077_16034" x1="17.5233" y1="122.019" x2="68.5022" y2="-38.2682" gradientUnits="userSpaceOnUse">
      <stop stop-color="#01CAC3"/>
      <stop offset="0.5" stop-color="#BCE2A7"/>
      <stop offset="1" stop-color="#A9D89B"/>
    </linearGradient>
  </defs>
</svg>