<svg width="25" height="25" viewBox="0 0 25 25" fill="none" xmlns="http://www.w3.org/2000/svg">
<path d="M11.5447 22.5999C11.2547 22.5999 10.9647 22.5499 10.6947 22.4499C9.44467 22.0399 8.64467 20.6599 8.92467 19.3799L9.41467 16.2299C9.42467 16.1599 9.42467 16.0599 9.35467 15.9799C9.30467 15.9299 9.23467 15.8999 9.15467 15.8999H5.15467C4.17467 15.8999 3.32467 15.4899 2.82467 14.7799C2.33467 14.0899 2.23467 13.1799 2.55467 12.2999L4.94467 5.0199C5.31467 3.5699 6.86467 2.3999 8.46467 2.3999H12.2647C12.8247 2.3999 14.0447 2.5699 14.6947 3.2199L17.7247 5.5599L16.8047 6.7499L13.7047 4.3499C13.4547 4.0999 12.8247 3.8999 12.2647 3.8999H8.46467C7.56467 3.8999 6.59467 4.6199 6.39467 5.4299L3.97467 12.7799C3.81467 13.2199 3.84467 13.6199 4.05467 13.9099C4.27467 14.2199 4.67467 14.3999 5.16467 14.3999H9.16467C9.68467 14.3999 10.1647 14.6199 10.4947 14.9999C10.8347 15.3899 10.9847 15.9099 10.9047 16.4499L10.4047 19.6599C10.2847 20.2199 10.6647 20.8499 11.2047 21.0299C11.6847 21.2099 12.3247 20.9499 12.5447 20.6299L16.6447 14.5299L17.8847 15.3699L13.7847 21.4699C13.3147 22.1699 12.4247 22.5999 11.5447 22.5999Z" fill="#292D32"/>
<path d="M20.3647 18.6H19.3647C17.5147 18.6 16.6147 17.73 16.6147 15.95V6.15C16.6147 4.37 17.5147 3.5 19.3647 3.5H20.3647C22.2147 3.5 23.1147 4.37 23.1147 6.15V15.95C23.1147 17.73 22.2147 18.6 20.3647 18.6ZM19.3647 5C18.2747 5 18.1147 5.26 18.1147 6.15V15.95C18.1147 16.84 18.2747 17.1 19.3647 17.1H20.3647C21.4547 17.1 21.6147 16.84 21.6147 15.95V6.15C21.6147 5.26 21.4547 5 20.3647 5H19.3647Z" fill="#292D32"/>
</svg>
