<svg width="17" height="17" viewBox="0 0 17 17" fill="none" xmlns="http://www.w3.org/2000/svg">
<path d="M7.79351 15.6004C7.47351 15.6004 7.16018 15.5204 6.86685 15.3604C6.28018 15.0337 5.92685 14.4404 5.92685 13.7737V10.2404C5.92685 9.90706 5.70685 9.40706 5.50018 9.15372L3.00685 6.51372C2.58685 6.09372 2.26685 5.37372 2.26685 4.83372V3.30039C2.26685 2.23372 3.07351 1.40039 4.10018 1.40039H12.9002C13.9135 1.40039 14.7335 2.22039 14.7335 3.23372V4.70039C14.7335 5.40039 14.3135 6.19372 13.9202 6.58706L11.0335 9.14039C10.7535 9.37372 10.5335 9.88706 10.5335 10.3004V13.1671C10.5335 13.7604 10.1602 14.4471 9.69351 14.7271L8.77351 15.3204C8.47351 15.5071 8.13351 15.6004 7.79351 15.6004ZM4.10018 2.40039C3.63351 2.40039 3.26685 2.79372 3.26685 3.30039V4.83372C3.26685 5.08039 3.46685 5.56039 3.72018 5.81372L6.26018 8.48706C6.60018 8.90706 6.93351 9.60706 6.93351 10.2337V13.7671C6.93351 14.2004 7.23351 14.4137 7.36018 14.4804C7.64018 14.6337 7.98018 14.6337 8.24018 14.4737L9.16685 13.8804C9.35351 13.7671 9.54018 13.4071 9.54018 13.1671V10.3004C9.54018 9.58706 9.88685 8.80039 10.3868 8.38039L13.2402 5.85372C13.4668 5.62706 13.7402 5.08706 13.7402 4.69372V3.23372C13.7402 2.77372 13.3668 2.40039 12.9068 2.40039H4.10018Z" fill="#292D32"/>
<path d="M4.4997 7.66652C4.40637 7.66652 4.3197 7.63985 4.23304 7.59318C3.9997 7.44652 3.92637 7.13318 4.07304 6.89985L7.3597 1.63318C7.50637 1.39985 7.81304 1.32652 8.04637 1.47318C8.2797 1.61985 8.35304 1.92652 8.20637 2.15985L4.9197 7.42652C4.82637 7.57985 4.66637 7.66652 4.4997 7.66652Z" fill="#292D32"/>
</svg>
