<svg width="25" height="24" viewBox="0 0 25 24" fill="none" xmlns="http://www.w3.org/2000/svg">
<g clip-path="url(#clip0_601_3432)">
<path d="M24.1604 12.2744C24.1604 11.3973 24.0814 10.558 23.9347 9.75098H12.582V14.3747L19.1202 14.3761C18.855 15.9145 18.0016 17.226 16.694 18.1003V21.1001H20.5859C22.8584 19.011 24.1604 15.923 24.1604 12.2744Z" fill="#4285F4"/>
<path d="M16.6954 18.0997C15.612 18.8255 14.2169 19.2501 12.5848 19.2501C9.4321 19.2501 6.75757 17.14 5.79977 14.2957H1.78516V17.3894C3.77412 21.3097 7.86209 23.9999 12.5848 23.9999C15.849 23.9999 18.5912 22.9336 20.5872 21.0981L16.6954 18.0997Z" fill="#34A853"/>
<path d="M5.42163 12.001C5.42163 11.2023 5.55564 10.4303 5.79968 9.70454V6.61084H1.78507C0.96268 8.23195 0.5 10.0618 0.5 12.001C0.5 13.9401 0.96409 15.77 1.78507 17.3911L5.79968 14.2974C5.55564 13.5717 5.42163 12.7996 5.42163 12.001Z" fill="#FABB05"/>
<path d="M12.5848 4.75032C14.3664 4.75032 15.9618 5.35981 17.2215 6.55077L20.6705 3.12781C18.5757 1.19005 15.8448 0.000488281 12.5848 0.000488281C7.8635 0.000488281 3.77412 2.69066 1.78516 6.61102L5.79977 9.70471C6.75757 6.86042 9.4321 4.75032 12.5848 4.75032Z" fill="#E94235"/>
</g>
<defs>
<clipPath id="clip0_601_3432">
<rect width="23.6603" height="23.9999" fill="white" transform="translate(0.5 0.000244141)"/>
</clipPath>
</defs>
</svg>
