<svg width="25" height="25" viewBox="0 0 25 25" fill="none" xmlns="http://www.w3.org/2000/svg">
<path d="M17.044 22.6H13.244C12.684 22.6 11.464 22.43 10.814 21.78L7.78402 19.44L8.70402 18.25L11.804 20.65C12.054 20.89 12.684 21.09 13.244 21.09H17.044C17.944 21.09 18.914 20.37 19.114 19.56L21.534 12.21C21.694 11.77 21.664 11.37 21.454 11.08C21.234 10.77 20.834 10.59 20.344 10.59H16.344C15.824 10.59 15.344 10.37 15.014 9.98999C14.674 9.59999 14.524 9.07999 14.604 8.53999L15.104 5.32999C15.224 4.76999 14.844 4.13999 14.304 3.95999C13.814 3.77999 13.184 4.03999 12.964 4.35999L8.86402 10.46L7.62402 9.62999L11.724 3.52999C12.354 2.58999 13.734 2.13999 14.814 2.54999C16.064 2.95999 16.864 4.33999 16.584 5.61999L16.094 8.76999C16.084 8.83999 16.084 8.93999 16.154 9.01999C16.204 9.06999 16.274 9.09999 16.354 9.09999H20.354C21.334 9.09999 22.184 9.50999 22.684 10.22C23.174 10.91 23.274 11.82 22.954 12.7L20.564 19.98C20.194 21.43 18.654 22.6 17.044 22.6Z" fill="#292D32"/>
<path d="M6.14404 21.4999H5.14404C3.29404 21.4999 2.39404 20.6299 2.39404 18.8499V9.0499C2.39404 7.2699 3.29404 6.3999 5.14404 6.3999H6.14404C7.99404 6.3999 8.89404 7.2699 8.89404 9.0499V18.8499C8.89404 20.6299 7.99404 21.4999 6.14404 21.4999ZM5.14404 7.8999C4.05404 7.8999 3.89404 8.1599 3.89404 9.0499V18.8499C3.89404 19.7399 4.05404 19.9999 5.14404 19.9999H6.14404C7.23404 19.9999 7.39404 19.7399 7.39404 18.8499V9.0499C7.39404 8.1599 7.23404 7.8999 6.14404 7.8999H5.14404Z" fill="#292D32"/>
</svg>
