<svg width="57" height="56" viewBox="0 0 57 56" fill="none" xmlns="http://www.w3.org/2000/svg">
<rect x="0.5" width="56" height="56" rx="28" fill="#C4C4C4" fill-opacity="0.1"/>
<path d="M35.75 20.5H35.75C36.4525 20.5 37.1283 20.7687 37.6388 21.2511C38.1477 21.7319 38.454 22.3886 38.4954 23.0873L38.5 23.2568V32.75V32.75C38.5 33.4525 38.2313 34.1283 37.7489 34.6388C37.2681 35.1477 36.6114 35.454 35.9128 35.4954L35.7432 35.5H22.25H22.25C21.5475 35.5 20.8717 35.2313 20.3612 34.7489C19.8523 34.2681 19.546 33.6114 19.5046 32.9127L19.5 32.7432V23.25V23.25C19.5 22.5475 19.7687 21.8717 20.2511 21.3612C20.7319 20.8523 21.3886 20.546 22.0873 20.5046L22.2568 20.5H35.75ZM38 25.373V24.5448L37.2671 24.9306L29.1171 29.2206L29.1165 29.2209C29.0858 29.2371 29.0521 29.2467 29.0175 29.2492C28.9871 29.2514 28.9565 29.248 28.9274 29.2392L28.8679 29.2131L20.7329 24.9315L20 24.5458V25.374V32.75V32.75C20 33.3147 20.2124 33.8587 20.5949 34.2741C20.9774 34.6895 21.5021 34.9458 22.0649 34.9923L22.075 34.9931L22.0852 34.9936L22.2292 34.9996L22.2396 35H22.25H35.75H35.75C36.3149 35 36.8591 34.7874 37.2745 34.4047C37.6899 34.0219 37.9462 33.4968 37.9923 32.9339L37.9931 32.9239L37.9936 32.914L37.9996 32.771L38 32.7605V32.75V25.373ZM35.771 21.0004L35.7605 21H35.75H22.25H22.25C21.6853 21 21.1413 21.2124 20.7259 21.5949C20.3105 21.9774 20.0542 22.5021 20.0077 23.0649L20.0069 23.075L20.0064 23.0852L20.0004 23.2292L20 23.2396V23.25V23.679V23.9809L20.2672 24.1215L28.7672 28.5945L29 28.717L29.2329 28.5945L37.7329 24.1205L38 23.9799V23.678V23.25V23.25C38 22.6851 37.7874 22.1409 37.4047 21.7255C37.0219 21.3101 36.4968 21.0538 35.9339 21.0077L35.9239 21.0069L35.914 21.0064L35.771 21.0004Z" fill="#282828" stroke="#282828"/>
</svg>
