<svg width="57" height="56" viewBox="0 0 57 56" fill="none" xmlns="http://www.w3.org/2000/svg">
<rect x="0.5" width="56" height="56" rx="28" fill="#C4C4C4" fill-opacity="0.1"/>
<path d="M24.7146 34.0003H31.3146C32.0191 34.0032 32.6994 33.7431 33.2222 33.2709C33.7451 32.7987 34.0729 32.1484 34.1415 31.4472C34.2101 30.746 34.0146 30.0445 33.5932 29.4799C33.1718 28.9153 32.5549 28.5283 31.8632 28.3946L26.1375 27.606C25.4458 27.4723 24.8288 27.0853 24.4074 26.5207C23.9861 25.9561 23.7905 25.2545 23.8592 24.5533C23.9278 23.8522 24.2556 23.2018 24.7784 22.7296C25.3013 22.2574 25.9815 21.9973 26.686 22.0003H33.286M29.0003 39.1431V16.8574" stroke="#282828" stroke-width="1.71429" stroke-linecap="round" stroke-linejoin="round"/>
</svg>
