<svg width="16" height="17" viewBox="0 0 16 17" fill="none" xmlns="http://www.w3.org/2000/svg">
<path d="M11.3335 14.6668H4.66683C2.2335 14.6668 0.833496 13.2668 0.833496 10.8335V6.16683C0.833496 3.7335 2.2335 2.3335 4.66683 2.3335H11.3335C13.7668 2.3335 15.1668 3.7335 15.1668 6.16683V10.8335C15.1668 13.2668 13.7668 14.6668 11.3335 14.6668ZM4.66683 3.3335C2.76016 3.3335 1.8335 4.26016 1.8335 6.16683V10.8335C1.8335 12.7402 2.76016 13.6668 4.66683 13.6668H11.3335C13.2402 13.6668 14.1668 12.7402 14.1668 10.8335V6.16683C14.1668 4.26016 13.2402 3.3335 11.3335 3.3335H4.66683Z" fill="#30A64A"/>
<path d="M8 11C6.62 11 5.5 9.88 5.5 8.5C5.5 7.12 6.62 6 8 6C9.38 6 10.5 7.12 10.5 8.5C10.5 9.88 9.38 11 8 11ZM8 7C7.17333 7 6.5 7.67333 6.5 8.5C6.5 9.32667 7.17333 10 8 10C8.82667 10 9.5 9.32667 9.5 8.5C9.5 7.67333 8.82667 7 8 7Z" fill="#30A64A"/>
<path d="M2.00016 6.99984H1.3335C1.06016 6.99984 0.833496 6.77317 0.833496 6.49984C0.833496 6.2265 1.06016 5.99984 1.3335 5.99984H2.00016C3.72016 5.99984 4.16683 5.55317 4.16683 3.83317V3.1665C4.16683 2.89317 4.3935 2.6665 4.66683 2.6665C4.94016 2.6665 5.16683 2.89317 5.16683 3.1665V3.83317C5.16683 6.11317 4.28016 6.99984 2.00016 6.99984Z" fill="#30A64A"/>
<path d="M14.6668 6.99984H14.0002C11.7202 6.99984 10.8335 6.11317 10.8335 3.83317V3.1665C10.8335 2.89317 11.0602 2.6665 11.3335 2.6665C11.6068 2.6665 11.8335 2.89317 11.8335 3.1665V3.83317C11.8335 5.55317 12.2802 5.99984 14.0002 5.99984H14.6668C14.9402 5.99984 15.1668 6.2265 15.1668 6.49984C15.1668 6.77317 14.9402 6.99984 14.6668 6.99984Z" fill="#30A64A"/>
<path d="M4.66683 14.3333C4.3935 14.3333 4.16683 14.1067 4.16683 13.8333V13.1667C4.16683 11.4467 3.72016 11 2.00016 11H1.3335C1.06016 11 0.833496 10.7733 0.833496 10.5C0.833496 10.2267 1.06016 10 1.3335 10H2.00016C4.28016 10 5.16683 10.8867 5.16683 13.1667V13.8333C5.16683 14.1067 4.94016 14.3333 4.66683 14.3333Z" fill="#30A64A"/>
<path d="M11.3335 14.3333C11.0602 14.3333 10.8335 14.1067 10.8335 13.8333V13.1667C10.8335 10.8867 11.7202 10 14.0002 10H14.6668C14.9402 10 15.1668 10.2267 15.1668 10.5C15.1668 10.7733 14.9402 11 14.6668 11H14.0002C12.2802 11 11.8335 11.4467 11.8335 13.1667V13.8333C11.8335 14.1067 11.6068 14.3333 11.3335 14.3333Z" fill="#30A64A"/>
</svg>
