<svg xmlns="http://www.w3.org/2000/svg" width="25" height="25" viewBox="0 0 25 25" fill="none">
  <g clip-path="url(#clip0_1740_31069)">
    <rect x="0.806641" y="0.889648" width="23.9642" height="23.9642" rx="7.98808" fill="white"/>
    <path d="M10.6124 7.58786C11.2974 5.47955 14.2801 5.47955 14.9651 7.58786C15.2715 8.53072 16.1501 9.16909 17.1415 9.16909C19.3583 9.16909 20.28 12.0058 18.4866 13.3088C17.6845 13.8915 17.3489 14.9244 17.6553 15.8673C18.3403 17.9756 15.9273 19.7288 14.1338 18.4258C13.3318 17.8431 12.2457 17.8431 11.4437 18.4258C9.65025 19.7288 7.23719 17.9756 7.92222 15.8673C8.22858 14.9244 7.89297 13.8915 7.09092 13.3088C5.29749 12.0058 6.21919 9.16909 8.436 9.16909C9.42739 9.16909 10.306 8.53072 10.6124 7.58786Z" fill="#FFC000"/>
  </g>
  <defs>
    <clipPath id="clip0_1740_31069">
      <rect x="0.806641" y="0.889648" width="23.9642" height="23.9642" rx="7.98808" fill="white"/>
    </clipPath>
  </defs>
</svg>