<svg xmlns="http://www.w3.org/2000/svg" width="25" height="25" viewBox="0 0 25 25" fill="none">
  <path d="M20.0153 13.8486C20.2765 13.8486 20.4883 13.6369 20.4883 13.3757V6.42894C20.4883 6.16773 20.2765 5.95598 20.0153 5.95598H17.1657V13.8486H20.0153Z" fill="#EB4336"/>
  <path d="M4.51208 11.2377C4.51208 11.8381 4.83469 12.3646 5.31565 12.653C5.13138 12.9191 5.0233 13.2419 5.0233 13.5893C5.0233 14.4984 5.76295 15.2381 6.67206 15.2381H10.1526C10.0459 15.7215 9.90001 16.4469 9.79843 17.2062C9.53406 19.1823 9.71474 20.2782 10.367 20.6551C10.7736 20.89 11.2121 20.9377 11.6015 20.7894C11.9024 20.6748 12.3087 20.393 12.5403 19.7015L13.455 17.3064C13.9188 16.161 15.339 14.9586 16.2197 14.2938V5.7476C14.5874 5.17565 12.884 4.88573 11.1462 4.88573H7.35378C6.44467 4.88573 5.70502 5.62538 5.70502 6.53449C5.70502 6.85285 5.79574 7.15045 5.95265 7.40273C5.40303 7.67041 5.02337 8.23481 5.02337 8.88611C5.02337 9.23361 5.13144 9.55634 5.31571 9.82246C4.83469 10.1108 4.51208 10.6373 4.51208 11.2377Z" fill="#EB4336"/>
</svg>