<svg xmlns="http://www.w3.org/2000/svg" width="25" height="25" viewBox="0 0 25 25" fill="none">
  <path d="M5.0384 11.9082C4.77718 11.9082 4.56543 12.12 4.56543 12.3812V19.3279C4.56543 19.5891 4.77721 19.8009 5.0384 19.8009H7.88796V11.9082H5.0384Z" fill="#00FF50"/>
  <path d="M20.5416 14.5201C20.5416 13.9197 20.219 13.3932 19.7381 13.1048C19.9223 12.8387 20.0304 12.516 20.0304 12.1685C20.0304 11.2594 19.2908 10.5197 18.3816 10.5197H14.9011C15.0078 10.0363 15.1537 9.31095 15.2553 8.5516C15.5196 6.57552 15.339 5.4796 14.6867 5.10272C14.2801 4.8678 13.8417 4.82015 13.4522 4.96842C13.1513 5.08302 12.745 5.36478 12.5134 6.05631L11.5987 8.45146C11.1349 9.59678 9.71475 10.7992 8.83398 11.464V20.0102C10.4664 20.5822 12.1697 20.8721 13.9075 20.8721H17.6999C18.609 20.8721 19.3487 20.1324 19.3487 19.2233C19.3487 18.905 19.258 18.6074 19.1011 18.3551C19.6507 18.0874 20.0303 17.523 20.0303 16.8717C20.0303 16.5242 19.9223 16.2015 19.738 15.9354C20.219 15.647 20.5416 15.1205 20.5416 14.5201Z" fill="#00FF50"/>
</svg>