<svg xmlns="http://www.w3.org/2000/svg" width="24" height="24" viewBox="0 0 24 24" fill="none">
  <path d="M18.5437 18.1078L18.5681 18.132L18.5948 18.1536L21.1495 20.2143L21.2296 20.2789C21.3935 20.5392 21.3632 20.89 21.1386 21.1168C20.8867 21.3712 20.4835 21.3753 20.2268 21.129L18.1229 18.7193L18.1229 18.7193L18.1195 18.7155L18.0545 18.6422C18.0031 18.5722 17.9743 18.4861 17.9743 18.3962C17.9743 18.2863 18.0173 18.1823 18.0919 18.1063C18.2186 17.9822 18.4177 17.9827 18.5437 18.1078ZM10.5776 2.65788C12.6736 2.65788 14.6851 3.49881 16.1692 4.99786C17.6535 6.49714 18.4886 8.532 18.4886 10.6551C18.4886 15.0782 14.9405 18.6524 10.5776 18.6524C6.21481 18.6524 2.66667 15.0782 2.66667 10.6551C2.66667 6.23207 6.21481 2.65788 10.5776 2.65788Z" stroke="#AEAEAE" stroke-width="1.33334"/>
</svg>