<svg width="57" height="56" viewBox="0 0 57 56" fill="none" xmlns="http://www.w3.org/2000/svg">
<rect x="0.5" width="56" height="56" rx="28" fill="#C4C4C4" fill-opacity="0.1"/>
<g clip-path="url(#clip0_3741_27470)">
<path d="M23 25C23.7956 25 24.5587 24.6839 25.1213 24.1213C25.6839 23.5587 26 22.7956 26 22M23 25C22.2044 25 21.4413 24.6839 20.8787 24.1213C20.3161 23.5587 20 22.7956 20 22M23 25V28M26 22C26 21.2044 25.6839 20.4413 25.1213 19.8787C24.5587 19.3161 23.7956 19 23 19M26 22H29M23 19C22.2044 19 21.4413 19.3161 20.8787 19.8787C20.3161 20.4413 20 21.2044 20 22M23 19V16M20 22H17M19 18L21 20M25 24L27 26M27 18L25 20M21 24L19 26M35 28C35.7956 28 36.5587 27.6839 37.1213 27.1213C37.6839 26.5587 38 25.7956 38 25M35 28C34.2044 28 33.4413 27.6839 32.8787 27.1213C32.3161 26.5587 32 25.7956 32 25M35 28V31M38 25C38 24.2044 37.6839 23.4413 37.1213 22.8787C36.5587 22.3161 35.7956 22 35 22M38 25H41M35 22C34.2044 22 33.4413 22.3161 32.8787 22.8787C32.3161 23.4413 32 24.2044 32 25M35 22V19M32 25H29M31 21L33 23M37 27L39 29M39 21L37 23M33 27L31 29M26 37C26.7956 37 27.5587 36.6839 28.1213 36.1213C28.6839 35.5587 29 34.7956 29 34M26 37C25.2044 37 24.4413 36.6839 23.8787 36.1213C23.3161 35.5587 23 34.7956 23 34M26 37V40M29 34C29 33.2044 28.6839 32.4413 28.1213 31.8787C27.5587 31.3161 26.7956 31 26 31M29 34H32M26 31C25.2044 31 24.4413 31.3161 23.8787 31.8787C23.3161 32.4413 23 33.2044 23 34M26 31V28M23 34H20M22 30L24 32M28 36L30 38M30 30L28 32M24 36L22 38" stroke="#282828" stroke-width="2"/>
</g>
<defs>
<clipPath id="clip0_3741_27470">
<rect width="24" height="24" fill="white" transform="translate(17 16)"/>
</clipPath>
</defs>
</svg>
