<svg width="16" height="17" viewBox="0 0 16 17" fill="none" xmlns="http://www.w3.org/2000/svg">
<path fill-rule="evenodd" clip-rule="evenodd" d="M3.33333 8.50048C3.33333 8.13235 3.03487 7.83382 2.66667 7.83382C2.29847 7.83382 2 8.13235 2 8.50048V10.6613C2 11.198 2 11.6409 2.02947 12.0017C2.06007 12.3765 2.1258 12.7209 2.29067 13.0445C2.54633 13.5462 2.95427 13.9542 3.456 14.2099C3.7796 14.3747 4.12407 14.4404 4.4988 14.471C4.8596 14.5005 5.30247 14.5005 5.83913 14.5005H10.1609C10.6975 14.5005 11.1404 14.5005 11.5012 14.471C11.8759 14.4404 12.2204 14.3747 12.544 14.2099C13.0457 13.9542 13.4537 13.5462 13.7094 13.0445C13.8742 12.7209 13.9399 12.3765 13.9705 12.0017C14 11.641 14 11.1981 14 10.6615V10.6614V8.50048C14 8.13235 13.7015 7.83382 13.3333 7.83382C12.9651 7.83382 12.6667 8.13235 12.6667 8.50048V10.6338C12.6667 11.2049 12.6661 11.5931 12.6416 11.8931C12.6178 12.1854 12.5745 12.3349 12.5213 12.4391C12.3935 12.69 12.1895 12.894 11.9387 13.0219C11.8344 13.0749 11.6849 13.1183 11.3926 13.1421C11.0926 13.1667 10.7044 13.1671 10.1333 13.1671H5.86667C5.2956 13.1671 4.9074 13.1667 4.60733 13.1421C4.31507 13.1183 4.1656 13.0749 4.06133 13.0219C3.81047 12.894 3.60647 12.69 3.47867 12.4391C3.42553 12.3349 3.38227 12.1854 3.3584 11.8931C3.33387 11.5931 3.33333 11.2049 3.33333 10.6338L3.33333 8.50048ZM8.00001 11.1668C8.36821 11.1668 8.66668 10.8683 8.66668 10.5002V4.77629L9.52861 5.63822C9.78894 5.89856 10.2111 5.89856 10.4714 5.63822C10.7317 5.37789 10.7317 4.95576 10.4714 4.69542L8.47141 2.69542C8.21108 2.43509 7.78894 2.43509 7.52861 2.69542L5.5286 4.69542C5.26826 4.95576 5.26826 5.37789 5.5286 5.63822C5.78896 5.89856 6.21106 5.89856 6.47142 5.63822L7.33334 4.77629L7.33334 10.5002C7.33334 10.8683 7.63181 11.1668 8.00001 11.1668Z" fill="#4285F4"/>
</svg>
