<svg xmlns="http://www.w3.org/2000/svg" width="6" height="5" viewBox="0 0 6 5" fill="none">
  <path opacity="0.2" d="M2.6049 4.39478C2.57924 4.36978 2.46949 4.27537 2.37921 4.18742C1.81144 3.67181 0.882111 2.32674 0.598445 1.62274C0.552864 1.51582 0.456391 1.24551 0.450195 1.10109C0.450195 0.962703 0.482058 0.830783 0.546668 0.704898C0.636946 0.547973 0.779 0.422089 0.946721 0.353111C1.06311 0.308706 1.41138 0.239728 1.41758 0.239728C1.7986 0.17075 2.41771 0.132812 3.10187 0.132812C3.75373 0.132812 4.34761 0.17075 4.73439 0.227226C4.74059 0.233693 5.17339 0.302671 5.32164 0.378115C5.59247 0.516502 5.76063 0.786809 5.76063 1.07609V1.10109C5.75399 1.28949 5.58583 1.68568 5.57963 1.68568C5.29553 2.35175 4.41178 3.66577 3.82453 4.19389C3.82453 4.19389 3.67363 4.34262 3.57937 4.40729C3.44395 4.50817 3.27623 4.55818 3.10851 4.55818C2.92132 4.55818 2.74696 4.5017 2.6049 4.39478Z" fill="#828282"/>
</svg>