<svg width="30" height="30" viewBox="0 0 30 30" fill="none" xmlns="http://www.w3.org/2000/svg">
<path d="M26.0199 8.02002C25.5317 7.75805 24.5076 7.48418 23.1144 8.46061L21.364 9.69901C21.233 5.99571 19.6255 4.54297 15.7197 4.54297H8.57511C4.50267 4.54297 2.91895 6.1267 2.91895 10.1991V19.7253C2.91895 22.4641 4.40741 25.3815 8.57511 25.3815H15.7197C19.6255 25.3815 21.233 23.9287 21.364 20.2254L23.1144 21.4638C23.8527 21.9878 24.4957 22.1545 25.0078 22.1545C25.4483 22.1545 25.7937 22.0235 26.0199 21.9044C26.5081 21.6544 27.3298 20.9756 27.3298 19.2728V10.6516C27.3298 8.94882 26.5081 8.27009 26.0199 8.02002ZM13.9336 14.2239C12.7071 14.2239 11.6949 13.2237 11.6949 11.9853C11.6949 10.7469 12.7071 9.74664 13.9336 9.74664C15.1601 9.74664 16.1722 10.7469 16.1722 11.9853C16.1722 13.2237 15.1601 14.2239 13.9336 14.2239Z" fill="white"/>
<circle cx="15.1241" cy="11.3897" r="3.57232" fill="white"/>
</svg>
