<svg width="30" height="29" viewBox="0 0 30 29" fill="none" xmlns="http://www.w3.org/2000/svg">
<g id="vuesax/bold/volume-high">
<g id="volume-high">
<path id="Vector" d="M22.1512 20.3332C21.9607 20.3332 21.7821 20.2736 21.6154 20.1546C21.2224 19.8569 21.1391 19.2972 21.4368 18.9042C23.3063 16.4155 23.3063 12.9385 21.4368 10.4498C21.1391 10.0568 21.2224 9.49714 21.6154 9.19945C22.0083 8.90176 22.568 8.98511 22.8657 9.37806C25.1996 12.4979 25.1996 16.8561 22.8657 19.9759C22.6871 20.2141 22.4251 20.3332 22.1512 20.3332Z" fill="white"/>
<path id="Vector_2" d="M24.3304 23.3105C24.1399 23.3105 23.9613 23.2509 23.7946 23.1318C23.4016 22.8342 23.3183 22.2745 23.616 21.8815C26.7953 17.6424 26.7953 11.7123 23.616 7.4732C23.3183 7.08024 23.4016 6.52058 23.7946 6.22289C24.1875 5.92519 24.7472 6.00855 25.0449 6.4015C28.7005 11.2718 28.7005 18.083 25.0449 22.9532C24.8782 23.1914 24.6043 23.3105 24.3304 23.3105Z" fill="white"/>
<path id="Vector_3" d="M17.4122 4.88869C16.0785 4.15041 14.3757 4.34093 12.6372 5.42453L9.16016 7.60365C8.92201 7.74654 8.64813 7.82989 8.37425 7.82989H7.26684H6.67145C3.78978 7.82989 2.20605 9.41362 2.20605 12.2953V17.0584C2.20605 19.94 3.78978 21.5238 6.67145 21.5238H7.26684H8.37425C8.64813 21.5238 8.92201 21.6071 9.16016 21.75L12.6372 23.9291C13.6851 24.5841 14.7092 24.9056 15.6618 24.9056C16.281 24.9056 16.8764 24.7627 17.4122 24.465C18.734 23.7267 19.4722 22.1906 19.4722 20.1425V9.21119C19.4722 7.16306 18.734 5.62696 17.4122 4.88869Z" fill="white"/>
</g>
</g>
</svg>
