<svg xmlns="http://www.w3.org/2000/svg" width="24" height="24" viewBox="0 0 24 24" fill="none">
  <path d="M19.875 1.875H22.125V4.125H19.875V1.875ZM19.875 6.375H22.125V8.625H19.875V6.375ZM15.375 1.875H17.625V4.125H15.375V1.875ZM15.375 6.375H17.625V8.625H15.375V6.375Z" fill="#282828" stroke="#282828" stroke-width="0.75"/>
  <path d="M21 12V16.5H3V4.5H12V3H3C2.60218 3 2.22064 3.15804 1.93934 3.43934C1.65804 3.72064 1.5 4.10218 1.5 4.5V16.5C1.5 16.8978 1.65804 17.2794 1.93934 17.5607C2.22064 17.842 2.60218 18 3 18H9V21H6V22.5H18V21H15V18H21C21.3978 18 21.7794 17.842 22.0607 17.5607C22.342 17.2794 22.5 16.8978 22.5 16.5V12H21ZM13.5 21H10.5V18H13.5V21Z" fill="#282828"/>
</svg>