<svg xmlns="http://www.w3.org/2000/svg" width="24" height="24" viewBox="0 0 24 24" fill="none">
  <path d="M9.99158 19.5975H9.96897L9.94658 19.6005C9.73097 19.6299 9.51144 19.6052 9.30773 19.5288C9.12184 19.459 8.95444 19.348 8.81791 19.2046C8.75559 19.0247 8.73742 18.8317 8.76498 18.6418C8.79518 18.4337 8.87981 18.2372 9.0103 18.0723L9.02627 18.0521L9.03895 18.0297C9.07479 17.9665 9.10946 17.8836 9.11498 17.7897C9.12026 17.6999 9.09649 17.5253 8.92537 17.4286C8.77156 17.3417 8.62194 17.3916 8.55577 17.4227C8.47803 17.4592 8.41238 17.5145 8.35898 17.5708L8.35896 17.5708L8.3561 17.5739C7.96599 17.996 7.58464 18.4262 7.2123 18.8641C6.80573 19.3363 6.66788 19.4931 6.60394 19.551L6.58852 19.5649L6.57495 19.5807C6.53438 19.6278 6.47928 19.6601 6.41833 19.6724C6.3609 19.6841 6.30136 19.6774 6.24807 19.6534C6.20579 19.6266 6.17263 19.5874 6.15317 19.5411C6.13237 19.4915 6.12835 19.4365 6.14173 19.3845L6.14528 19.3707L6.14764 19.3567C6.14756 19.3572 6.14797 19.3547 6.14935 19.348L6.15473 19.323C6.15938 19.302 6.16574 19.2744 6.17383 19.2402C6.18998 19.172 6.21224 19.0806 6.23978 18.9694C6.29483 18.7471 6.37024 18.4484 6.45843 18.1023C6.63476 17.4101 6.86163 16.5302 7.07758 15.6971L6.46455 15.4497C5.92755 16.4021 4.29088 19.1469 4.02314 19.5959C4.00596 19.6248 3.99441 19.6441 3.98916 19.6529L4.27558 19.8235L3.98941 19.6525C3.97127 19.6829 3.94181 19.7048 3.90751 19.7135C3.87321 19.7221 3.83688 19.7168 3.80651 19.6986C3.79148 19.6896 3.77836 19.6778 3.7679 19.6637L3.50047 19.8627L3.7679 19.6637C3.75745 19.6497 3.74986 19.6337 3.74558 19.6167C3.7413 19.5997 3.74041 19.5821 3.74295 19.5648C3.74549 19.5474 3.75143 19.5308 3.76041 19.5157L3.76042 19.5157L3.76181 19.5134L3.76318 19.5111L3.76929 19.5008L3.79028 19.4655L3.86664 19.3374L4.13458 18.8872C4.3561 18.5148 4.65237 18.016 4.95697 17.5011C5.56231 16.4778 6.2112 15.3727 6.36066 15.0852L6.36678 15.0735L6.37193 15.0613C6.43273 14.9174 6.54583 14.802 6.68839 14.7383C6.8281 14.6759 6.98592 14.6677 7.13118 14.7151C7.25461 14.7677 7.35433 14.8642 7.41093 14.9861C7.46881 15.1108 7.4773 15.2528 7.43468 15.3834L7.43149 15.3932L7.42892 15.4031C7.18886 16.3287 6.94407 17.2778 6.75526 18.0177L7.33004 18.3186C7.63615 17.9657 7.949 17.6105 8.17096 17.3814L8.17976 17.3723L8.18784 17.3626C8.31824 17.2059 8.49643 17.0961 8.69513 17.0503C8.8911 17.0051 9.09637 17.0244 9.28035 17.1053C9.36798 17.1517 9.43814 17.2254 9.48007 17.3154C9.52207 17.4056 9.53338 17.5069 9.51239 17.604C9.46001 17.7875 9.38506 17.9638 9.28927 18.1288L9.28556 18.1352L9.28213 18.1418C9.21437 18.2715 9.13769 18.5289 9.20137 18.7846C9.23624 18.9246 9.3155 19.0695 9.46331 19.1764C9.60755 19.2808 9.78706 19.3273 9.98572 19.3307L9.98572 19.3308H9.99158H15.1936C15.2289 19.3308 15.2629 19.3448 15.2879 19.3698C15.3129 19.3949 15.3269 19.4288 15.3269 19.4641C15.3269 19.4995 15.3129 19.5334 15.2879 19.5584C15.2629 19.5834 15.2289 19.5975 15.1936 19.5975H9.99158ZM5.66624 5.80013H15.6662V6.20013H5.66624V5.80013ZM5.66624 11.1335H10.3902V11.5335H5.66624V11.1335ZM5.66624 8.4668H14.7805L14.3808 8.8668H5.66624V8.4668Z" fill="#282828" stroke="#282828" stroke-width="0.666667"/>
  <path d="M18.6663 14.4635V21.3335H2.66634V2.66683H18.6663V5.9955L19.553 5.10883C19.6895 4.97421 19.8391 4.85361 19.9997 4.74883V2.00016C19.9997 1.82335 19.9294 1.65378 19.8044 1.52876C19.6794 1.40373 19.5098 1.3335 19.333 1.3335H1.99967C1.82286 1.3335 1.65329 1.40373 1.52827 1.52876C1.40325 1.65378 1.33301 1.82335 1.33301 2.00016V22.0002C1.33301 22.177 1.40325 22.3465 1.52827 22.4716C1.65329 22.5966 1.82286 22.6668 1.99967 22.6668H19.333C19.5098 22.6668 19.6794 22.5966 19.8044 22.4716C19.9294 22.3465 19.9997 22.177 19.9997 22.0002V14.2848C19.5908 14.5015 19.1179 14.5649 18.6663 14.4635Z" fill="#282828"/>
  <path d="M22.7519 7.90742L22.4032 7.55875C22.5814 7.32326 22.6717 7.03285 22.6583 6.73784C22.6449 6.44283 22.5287 6.16179 22.3299 5.94342C22.0719 5.71597 21.7344 5.59971 21.391 5.61993C21.0476 5.64016 20.7261 5.79525 20.4966 6.05142L12.1466 14.4001L11.5886 16.4948C11.5797 16.5222 11.5787 16.5515 11.5855 16.5795C11.5923 16.6074 11.6067 16.633 11.6271 16.6533C11.6476 16.6736 11.6732 16.6878 11.7012 16.6944C11.7293 16.701 11.7586 16.6998 11.7859 16.6908L13.8732 16.1261L21.6679 8.33142L21.9972 8.66142C22.0202 8.68439 22.0385 8.71167 22.0509 8.7417C22.0634 8.77172 22.0698 8.80391 22.0698 8.83642C22.0698 8.86892 22.0634 8.90111 22.0509 8.93114C22.0385 8.96117 22.0202 8.98845 21.9972 9.01142L18.7192 12.2894C18.6193 12.3895 18.5631 12.5252 18.5632 12.6667C18.5632 12.8081 18.6195 12.9438 18.7196 13.0438C18.8196 13.1437 18.9553 13.1999 19.0968 13.1998C19.2383 13.1997 19.3739 13.1435 19.4739 13.0434L22.7519 9.76542C22.9983 9.51889 23.1367 9.18462 23.1367 8.83608C23.1367 8.48755 22.9983 8.15328 22.7519 7.90675V7.90742Z" fill="#282828"/>
</svg>