<svg xmlns="http://www.w3.org/2000/svg" width="24" height="24" viewBox="0 0 24 24" fill="none">
  <path d="M7.40704 21.6697L7.40286 21.6675C7.00233 21.4567 6.75 21.0302 6.75 20.5699V19.15V18.6987L6.30106 18.6526C4.904 18.5092 3.77429 17.9287 2.99282 17.0408C2.21066 16.1522 1.75 14.9243 1.75 13.4399V7.43994C1.75 5.83448 2.28687 4.53018 3.18855 3.62849C4.09024 2.72681 5.39454 2.18994 7 2.18994H17C18.6055 2.18994 19.9098 2.72681 20.8114 3.62849C21.7131 4.53018 22.25 5.83448 22.25 7.43994V13.4399C22.25 15.0453 21.7131 16.3496 20.8114 17.2513C19.9098 18.153 18.6055 18.6899 17 18.6899H13.23H13.0786L12.9526 18.7739L8.69596 21.6117C8.69544 21.6121 8.69492 21.6124 8.69441 21.6128C8.48661 21.7485 8.24257 21.8199 8 21.8199C7.80132 21.8199 7.59293 21.7698 7.40704 21.6697ZM8.40845 21.1918L8.40851 21.1919L8.41693 21.1863L12.8669 18.2263L12.8674 18.226C12.9123 18.1961 12.9669 18.18 13.01 18.18H17.01C18.4099 18.18 19.6074 17.7247 20.4561 16.876C21.3048 16.0274 21.76 14.8299 21.76 13.43V7.42993C21.76 6.03004 21.3048 4.83257 20.4561 3.98388C19.6074 3.13518 18.4099 2.67993 17.01 2.67993H7C5.60011 2.67993 4.40264 3.13518 3.55395 3.98388C2.70525 4.83257 2.25 6.03004 2.25 7.42993V13.43C2.25 14.8299 2.70525 16.0274 3.55395 16.876C4.40264 17.7247 5.60011 18.18 7 18.18C7.13386 18.18 7.25 18.2961 7.25 18.43V20.56C7.25 20.9526 7.51585 21.1446 7.62275 21.2087C7.78654 21.307 8.09587 21.3907 8.40845 21.1918Z" fill="#282828" stroke="#282828"/>
  <path d="M11.9998 12.1099C11.5898 12.1099 11.2498 11.7699 11.2498 11.3599V11.1499C11.2498 9.9899 12.0998 9.41989 12.4198 9.19989C12.7898 8.94989 12.9098 8.7799 12.9098 8.5199C12.9098 8.0199 12.4998 7.60986 11.9998 7.60986C11.4998 7.60986 11.0898 8.0199 11.0898 8.5199C11.0898 8.9299 10.7498 9.2699 10.3398 9.2699C9.92984 9.2699 9.58984 8.9299 9.58984 8.5199C9.58984 7.1899 10.6698 6.10986 11.9998 6.10986C13.3298 6.10986 14.4098 7.1899 14.4098 8.5199C14.4098 9.6599 13.5698 10.2299 13.2598 10.4399C12.8698 10.6999 12.7498 10.8699 12.7498 11.1499V11.3599C12.7498 11.7799 12.4098 12.1099 11.9998 12.1099Z" fill="#282828"/>
  <path d="M12 14.6001C11.58 14.6001 11.25 14.2601 11.25 13.8501C11.25 13.4401 11.59 13.1001 12 13.1001C12.41 13.1001 12.75 13.4401 12.75 13.8501C12.75 14.2601 12.42 14.6001 12 14.6001Z" fill="#282828"/>
</svg>