<svg xmlns="http://www.w3.org/2000/svg" width="24" height="24" viewBox="0 0 24 24" fill="none">
  <g clip-path="url(#clip0_920_8213)">
    <path d="M6 9C6.79565 9 7.55871 8.68393 8.12132 8.12132C8.68393 7.55871 9 6.79565 9 6M6 9C5.20435 9 4.44129 8.68393 3.87868 8.12132C3.31607 7.55871 3 6.79565 3 6M6 9V12M9 6C9 5.20435 8.68393 4.44129 8.12132 3.87868C7.55871 3.31607 6.79565 3 6 3M9 6H12M6 3C5.20435 3 4.44129 3.31607 3.87868 3.87868C3.31607 4.44129 3 5.20435 3 6M6 3V0M3 6H0M2 2L4 4M8 8L10 10M10 2L8 4M4 8L2 10M18 12C18.7956 12 19.5587 11.6839 20.1213 11.1213C20.6839 10.5587 21 9.79565 21 9M18 12C17.2044 12 16.4413 11.6839 15.8787 11.1213C15.3161 10.5587 15 9.79565 15 9M18 12V15M21 9C21 8.20435 20.6839 7.44129 20.1213 6.87868C19.5587 6.31607 18.7956 6 18 6M21 9H24M18 6C17.2044 6 16.4413 6.31607 15.8787 6.87868C15.3161 7.44129 15 8.20435 15 9M18 6V3M15 9H12M14 5L16 7M20 11L22 13M22 5L20 7M16 11L14 13M9 21C9.79565 21 10.5587 20.6839 11.1213 20.1213C11.6839 19.5587 12 18.7956 12 18M9 21C8.20435 21 7.44129 20.6839 6.87868 20.1213C6.31607 19.5587 6 18.7956 6 18M9 21V24M12 18C12 17.2044 11.6839 16.4413 11.1213 15.8787C10.5587 15.3161 9.79565 15 9 15M12 18H15M9 15C8.20435 15 7.44129 15.3161 6.87868 15.8787C6.31607 16.4413 6 17.2044 6 18M9 15V12M6 18H3M5 14L7 16M11 20L13 22M13 14L11 16M7 20L5 22" stroke="#282828" stroke-width="2"/>
  </g>
  <defs>
    <clipPath id="clip0_920_8213">
      <rect width="24" height="24" fill="white"/>
    </clipPath>
  </defs>
</svg>